<?xml version="1.0" encoding="UTF-8"?>
<svg width="1200pt" height="1200pt" version="1.1" viewBox="0 0 1200 1200" xmlns="http://www.w3.org/2000/svg">
 <g>
  <rect width="1200" height="1200" fill="#fff"/>
  <path d="m943.1 562.21-221.43-221.42c-20.402-20.402-54.41-20.402-74.816 0-20.402 20.402-20.402 54.41 0 74.816l130.74 131.49h-483.66c-29.473 0-52.898 23.426-52.898 52.898s23.426 52.898 52.898 52.898h483.66l-130.74 130.74c-20.402 20.402-20.402 54.41 0 74.816 10.578 10.578 24.184 15.871 37.785 15.871s27.207-5.2891 37.785-15.871l220.67-220.67c9.8242-9.8242 15.871-23.426 15.871-37.785-0.003906-14.359-5.293-27.965-15.871-37.789z"/>
 </g>
</svg>
