<?xml version="1.0" encoding="UTF-8"?>
<svg width="1200pt" height="1200pt" version="1.1" viewBox="0 0 1200 1200" xmlns="http://www.w3.org/2000/svg">
 <path d="m641.7 126.57c-4.082-8.9453-9.7227-16.914-16.527-23.719-14.387-14.387-34.219-23.332-56.188-23.332s-41.801 8.9453-56.188 23.332c-7 6.8047-12.441 14.973-16.527 23.914 23.527-4.668 47.828-7.1953 72.715-7.1953s49.191 2.5273 72.715 7zm55.996 963.19h-257.42c4.2773 27.996 17.5 53.078 36.746 72.133 23.332 23.527 55.996 38.109 91.965 38.109s68.438-14.582 91.965-38.109c19.25-19.055 32.469-44.137 36.746-72.133zm62.996-460.6c42.387 42.387 101.1 68.633 165.85 68.633 64.938 0 123.46-26.246 166.04-68.633 42.387-42.387 68.633-101.1 68.633-165.85 0-64.938-26.246-123.66-68.633-166.04-42.578-42.387-101.1-68.633-166.04-68.633-64.742 0-123.46 26.246-165.85 68.633-42.578 42.387-68.828 101.1-68.828 166.04 0 64.742 26.246 123.46 68.828 165.85zm-350.75-474.4c1.168-42.191 18.664-80.297 46.664-108.1 28.773-28.773 68.438-46.664 112.38-46.664 43.941 0 83.602 17.887 112.38 46.664 27.805 27.805 45.496 65.91 46.664 108.1 32.082 14.777 61.828 34.219 88.465 56.969-31.496 13.805-59.883 33.441-83.992 57.551-49.578 49.578-80.297 118.21-80.297 194.04 0 75.633 30.719 144.27 80.297 194.04 49.773 49.578 118.41 80.297 194.04 80.297 15.555 0 30.523-1.3594 45.301-3.6953 5.25 29.555 11.277 58.715 18.082 86.715 7.582 30.523 16.137 59.688 25.664 86.133 2.918 7.9727 10.5 13.027 18.664 13.027 17.691 0.19531 34.023 7.3867 45.883 19.25l0.77734 0.77734c11.277 11.664 18.277 27.609 18.277 45.105 0 17.887-7.3867 34.023-19.055 45.883-11.859 11.664-28.191 19.055-45.883 19.055h-930.52c-17.887 0-34.023-7.3867-45.883-19.055l-0.77734-0.77734c-11.277-11.859-18.277-27.609-18.277-45.105 0-17.887 7.3867-34.023 19.055-45.883 11.859-11.859 27.996-19.055 45.883-19.055 9.332 0 17.109-6.418 19.25-14.973 19.832-55.41 35.387-123.27 46.469-190.93 12.637-77.965 19.441-155.73 19.441-214.26 0-104.6 42.773-199.68 111.6-268.5 31.496-31.496 68.633-57.551 109.46-76.605z" fill="#676767"/>
</svg>
