<?xml version="1.0" encoding="UTF-8"?>
<svg width="1200pt" height="1200pt" version="1.1" viewBox="0 200 1200 800" xmlns="http://www.w3.org/2000/svg">
 <g>

  <path d="m600 625.19c13.855 0 25.191 11.336 25.191 25.191 0 6.9258 5.668 12.594 12.594 12.594 6.9258 0 12.594-5.668 12.594-12.594 0-23.426-16.121-42.949-37.785-48.617l0.003906-14.359c0-6.9258-5.668-12.594-12.594-12.594-6.9258 0-12.594 5.668-12.594 12.594v14.359c-21.664 5.668-37.785 25.191-37.785 48.617 0 27.836 22.547 50.383 50.383 50.383 13.855 0 25.191 11.336 25.191 25.191s-11.336 25.191-25.191 25.191c-13.855 0-25.191-11.336-25.191-25.191 0-6.9258-5.668-12.594-12.594-12.594-6.9258 0-12.594 5.668-12.594 12.594 0 23.426 16.121 42.949 37.785 48.617l-0.007812 14.355c0 6.9258 5.668 12.594 12.594 12.594s12.594-5.668 12.594-12.594v-14.359c21.664-5.668 37.785-25.191 37.785-48.617 0-27.836-22.547-50.383-50.383-50.383-13.855 0-25.191-11.336-25.191-25.191 0.007812-13.852 11.344-25.188 25.195-25.188z"/>
  <path d="m600 537.03c-83.379 0-151.14 67.762-151.14 151.14 0 83.379 67.762 151.14 151.14 151.14 83.379 0 151.14-67.762 151.14-151.14s-67.762-151.14-151.14-151.14zm0 277.09c-69.398 0-125.95-56.551-125.95-125.95 0-69.398 56.551-125.95 125.95-125.95 69.398 0 125.95 56.551 125.95 125.95 0 69.398-56.551 125.95-125.95 125.95z"/>
  <path d="m889.69 360.69h-88.168l0.003906-37.785c0-6.9258-5.668-12.594-12.594-12.594h-50.383c-6.9258 0-12.594 5.668-12.594 12.594v37.785h-251.91v-37.785c0-6.9258-5.668-12.594-12.594-12.594h-50.383c-6.9258 0-12.594 5.668-12.594 12.594v37.785h-88.168c-6.9258 0-12.594 5.668-12.594 12.594v503.81c0 6.9258 5.668 12.594 12.594 12.594h579.38c6.9258 0 12.594-5.668 12.594-12.594v-503.8c0-6.9297-5.668-12.598-12.598-12.598zm-138.55-25.191h25.191v75.57h-25.191zm-327.48 0h25.191v75.57h-25.191zm-25.191 50.383v37.785c0 6.9258 5.668 12.594 12.594 12.594h50.383c6.9258 0 12.594-5.668 12.594-12.594v-37.785h251.91v37.785c0 6.9258 5.668 12.594 12.594 12.594h50.383c6.9258 0 12.594-5.668 12.594-12.594v-37.785h75.57v88.168h-554.19v-88.168zm-75.57 478.62v-365.26h554.19v365.26z"/>
 </g>
</svg>
