<?xml version="1.0" encoding="UTF-8"?>
<svg width="1200pt" height="1200pt" version="1.1" viewBox="0 0 1200 1200" xmlns="http://www.w3.org/2000/svg">
 <path d="m200.41 714.12c-11.094 67.797-26.707 135.59-46.43 190.86-2.2617 8.6289-10.066 14.996-19.312 14.996-17.875 0-34.105 7.3945-45.812 19.105-11.711 11.914-19.105 28.145-19.105 46.02 0 17.258 6.9844 33.281 18.285 44.992l0.82031 0.82031c11.711 11.711 27.941 19.105 45.812 19.105h930.46c17.875 0 34.105-7.3945 46.02-19.105 11.711-11.711 19.105-28.145 19.105-45.812s-6.9844-33.488-18.285-45.199l-0.82031-0.82031c-11.914-11.711-28.145-19.105-46.02-19.105-8.0117 0-15.613-5.1367-18.488-13.148-20.133-55.676-35.953-124.29-47.047-192.71-12.738-77.863-19.516-155.73-19.516-214.28 0-104.57-42.73-199.49-111.55-268.52-31.637-31.434-68.617-57.523-109.5-76.629-1.2344-42.117-18.695-80.328-46.637-108.06-28.762-28.762-68.414-46.637-112.38-46.637s-83.617 17.875-112.58 46.637c-27.734 27.734-45.402 65.949-46.43 108.06-40.883 19.105-77.863 45.199-109.5 76.629-68.824 69.027-111.76 163.95-111.76 268.52 0 58.551-6.5742 136.41-19.312 214.28zm472.32-587.36c-23.625-4.7266-47.867-7.1914-72.727-7.1914s-49.102 2.4648-72.727 7.1914c4.1094-9.0391 9.6562-17.051 16.434-24.035 14.383-14.383 34.309-23.215 56.293-23.215s41.91 8.8359 56.293 23.215c6.7812 6.9844 12.328 14.996 16.434 24.035zm55.879 962.92h-257.21c4.3125 28.145 17.461 53.211 36.57 72.316 23.422 23.422 56.086 38.008 92.039 38.008s68.617-14.586 92.039-38.008c19.105-19.105 32.254-44.172 36.57-72.316z"  fill-rule="evenodd"/>
</svg>
