<?xml version="1.0" encoding="UTF-8"?>
<svg width="1200pt" height="1200pt" version="1.1" viewBox="150 0 1200 1200" xmlns="http://www.w3.org/2000/svg">
 <defs>
  <clipPath id="a">
   <path d="m347 222.14h507v755.71h-507z"/>
  </clipPath>
 </defs>
 <!-- <rect width="1200" height="1200" fill="#fff"/> -->
 <path d="m487 462.64c-6.5195 0-11.809 5.2852-11.809 11.809v10.031c0 15.078 12.27 27.344 27.348 27.344h30.777v33.641c0 6.5195 5.2852 11.809 11.809 11.809 6.5195 0 11.809-5.2852 11.809-11.809v-33.641h30.777c15.078 0 27.348-12.266 27.348-27.344v-46.066c0-15.078-12.27-27.348-27.348-27.348h-85.168c-2.0586 0-3.7305-1.6719-3.7305-3.7305v-46.066c0-2.0547 1.6719-3.7266 3.7305-3.7266h85.168c2.0586 0 3.7305 1.6719 3.7305 3.7266v7.3672c0 6.5195 5.2852 11.809 11.809 11.809 6.5195 0 11.809-5.2852 11.809-11.809v-7.3672c0-15.078-12.27-27.344-27.348-27.344h-30.777v-33.641c0-6.5195-5.2852-11.809-11.809-11.809-6.5195 0-11.809 5.2852-11.809 11.809v33.641h-30.777c-15.078 0-27.348 12.266-27.348 27.344v46.066c0 15.078 12.27 27.348 27.348 27.348h85.168c2.0586 0 3.7305 1.6719 3.7305 3.7305v46.066c0 2.0547-1.6719 3.7266-3.7305 3.7266h-85.168c-2.0586 0-3.7305-1.6719-3.7305-3.7266v-10.031c0-6.5195-5.2852-11.809-11.809-11.809z"/>
 <g clip-path="url(#a)">
  <path d="m841.2 774.17h-70.848c-6.168 0-11.223 4.7305-11.754 10.758h-15.059l-113.21-114.07c-11.262-11.348-28.125-13.738-41.867-6.5469v-44.852c91.227-18.875 160.01-99.844 160.01-196.58 0-110.69-90.051-200.74-200.73-200.74-41.027 0-80.48 12.297-114.1 35.562-5.3633 3.7109-6.6992 11.066-2.9883 16.43 3.7109 5.3633 11.066 6.6992 16.43 2.9883 29.648-20.52 64.457-31.363 100.66-31.363 97.664 0 177.12 79.457 177.12 177.12 0 97.664-79.457 177.12-177.12 177.12s-177.12-79.457-177.12-177.12c0-42.715 15.414-83.969 43.406-116.16 4.2773-4.9219 3.7578-12.379-1.1641-16.656-4.918-4.2773-12.379-3.7617-16.656 1.1641-31.727 36.488-49.199 83.246-49.199 131.66 0 96.734 68.785 177.71 160.01 196.58v106.77c-1.3203 1.9609-2.4805 4.0273-3.4844 6.1719h-38.488c-20.047 0-36.355 16.309-36.355 36.359 0 9.457 3.6289 18.074 9.5664 24.551-5.9375 6.4727-9.5664 15.094-9.5664 24.551 0 9.457 3.6289 18.074 9.5664 24.551-5.9375 6.4727-9.5664 15.094-9.5664 24.551 0 9.457 3.6289 18.074 9.5664 24.551-5.9375 6.4727-9.5664 15.094-9.5664 24.551 0 20.004 16.242 36.285 36.234 36.355l138.82 25.258c0.69531 0.125 1.4023 0.19141 2.1133 0.19141h74.395c1.0742 0 2.1445-0.14844 3.1797-0.43359l51.012-14.258h24.109v2.8828c0 6.5195 5.2852 11.809 11.809 11.809h70.848c6.5195 0 11.809-5.2852 11.809-11.809v-180.07c0-6.5195-5.2852-11.809-11.809-11.809zm-293.46-150.55c5.7656 0 11.469-0.25781 17.109-0.73828v58.16c-11.836 8.6406-24.629 17.941-34.223 24.824v-82.984c5.6445 0.47656 11.348 0.73828 17.109 0.73828zm-95.438 243.34c0-7.0273 5.7148-12.742 12.742-12.742h114.66c7.0273 0 12.742 5.7148 12.742 12.742 0 7.0273-5.7148 12.742-12.742 12.742h-114.66c-7.0273 0-12.742-5.7148-12.742-12.742zm0-49.098c0-7.0273 5.7148-12.742 12.742-12.742h122.04c7.0273 0 12.742 5.7148 12.742 12.742 0 7.0273-5.7148 12.742-12.742 12.742h-122.04c-7.0273 0-12.742-5.7148-12.742-12.742zm134.83-36.359h-12.855l21.672-13.031 3.2031 4.5195c-1.75 4.9727-6.4961 8.5078-12.016 8.5078zm-122.09-25.484h34.379c0.91797 9.4688 4.8555 18.422 11.367 25.453l0.03125 0.03125h-45.777c-7.0273 0-12.742-5.7148-12.742-12.742 0-7.0273 5.7148-12.742 12.742-12.742zm0 147.3h107.28c7.0273 0 12.742 5.7148 12.742 12.742s-5.7148 12.742-12.742 12.742h-106.55-0.066407-0.66797c-7.0273 0-12.742-5.7148-12.742-12.742s5.7148-12.742 12.742-12.742zm364.36 50.926h-47.23v-34.434c0-6.5195-5.2852-11.809-11.809-11.809-6.5195 0-11.809 5.2852-11.809 11.809v19.742h-25.727c-1.0742 0-2.1445 0.14844-3.1797 0.43359l-51.012 14.258h-71.711l-22.137-4.0273c13.93-5.0977 23.898-18.484 23.898-34.156 0-7.6484-2.3789-14.75-6.4297-20.609 8.4023-6.6641 13.809-16.953 13.809-28.488 0-7.6484-2.3789-14.75-6.4297-20.609 8.4023-6.6641 13.809-16.953 13.809-28.488 0-5.5039-1.2344-10.719-3.4336-15.398l15.734 22.223c2.3008 3.25 5.9453 4.9844 9.6484 4.9844 2.3594 0 4.7422-0.70703 6.8125-2.1719 5.3203-3.7695 6.582-11.137 2.8125-16.461l-46.129-65.152c-3.5703-5.043-10.426-6.4805-15.723-3.2969l-34.5 20.742c-8.668 5.2109-23.875 9.3047-30.551 2.0977-3.9961-4.3164-5.832-10.004-5.1641-16.023 0.71484-6.4414 4.1797-12.234 9.5039-15.898 10.738-7.3906 41.426-29.777 65.277-47.254 4.8945-3.5898 11.559-3.0625 15.84 1.25l116.67 117.56c2.2188 2.2344 5.2344 3.4883 8.3789 3.4883h19.922v64.035c0 6.5195 5.2852 11.809 11.809 11.809 6.5195 0 11.809-5.2852 11.809-11.809v-74.789h47.23v156.46z"/>
 </g>
</svg>
