<?xml version="1.0" encoding="UTF-8"?>
<svg width="1200pt" height="1200pt" version="1.1" viewBox="0 0 1200 1200" xmlns="http://www.w3.org/2000/svg">
 <g >
  <path d="m1168.8 835.2-42-184.8c-10.801-46.801-45.602-81.602-90-93.602-6-1.1992-13.199-1.1992-18 2.3984-24 12-51.602 18-80.398 18-28.801 0-56.398-7.1992-80.398-18-6-2.3984-12-3.6016-18-2.3984-22.801 6-44.398 19.199-60 36 30 25.199 51.602 58.801 61.199 98.398l42 184.8c0 2.3984 1.1992 3.6016 1.1992 6 18 1.1992 36 1.1992 54 1.1992 73.199 0 144-6 210-18 14.398-2.3945 23.996-15.594 20.398-29.996z"/>
  <path d="m1069.2 393.6c0 72.238-58.559 130.8-130.8 130.8-72.238 0-130.8-58.559-130.8-130.8 0-72.242 58.559-130.8 130.8-130.8 72.242 0 130.8 58.559 130.8 130.8"/>
  <path d="m420 594c-15.602-18-37.199-30-60-36-6-1.1992-13.199-1.1992-18 2.3984-24 12-51.602 18-80.398 18-28.801 0-56.398-7.1992-80.398-18-6-2.3984-12-3.6016-18-2.3984-44.398 12-79.199 46.801-90 93.602l-42 184.8c-3.6016 14.398 6 27.602 20.398 30 66 12 136.8 18 210 18 18 0 36 0 54-1.1992 0-2.3984 0-3.6016 1.1992-6l42-184.8c9.5977-39.602 31.199-74.402 61.199-98.402z"/>
  <path d="m392.4 393.6c0 72.238-58.559 130.8-130.8 130.8-72.242 0-130.8-58.559-130.8-130.8 0-72.242 58.559-130.8 130.8-130.8 72.238 0 130.8 58.559 130.8 130.8"/>
  <path d="m788.4 704.4c-10.801-46.801-45.602-81.602-90-93.602-6-1.1992-13.199-1.1992-18 2.3984-24 12-51.602 18-80.398 18-28.801 0-56.398-7.1992-80.398-18-6-2.3984-12-3.6016-18-2.3984-44.398 12-79.199 46.801-90 93.602l-42 184.8c-3.6016 14.398 6 27.602 20.398 30 66 12 136.8 18 210 18s144-6 210-18c14.398-2.3984 24-16.801 20.398-30z"/>
  <path d="m730.8 447.6c0 72.238-58.562 130.8-130.8 130.8s-130.8-58.559-130.8-130.8c0-72.242 58.562-130.8 130.8-130.8s130.8 58.559 130.8 130.8"/>
 </g>
</svg>
