<?xml version="1.0" encoding="UTF-8"?>
<svg width="1200pt" height="1200pt" version="1.1" viewBox="0 300 1200 600" xmlns="http://www.w3.org/2000/svg">
 <g>
  <path d="m907.14 414.34h-564.56c-12.172 0-22.113 9.9453-22.113 22.113v27.602h-27.605c-12.172 0-22.113 9.9453-22.113 22.113v277.39c0 12.172 9.9453 22.113 22.113 22.113h564.64c12.172 0 22.113-9.9453 22.113-22.113v-27.602h27.602c12.172 0 22.113-9.9453 22.113-22.113l0.007813-277.39c-0.082032-12.25-9.9453-22.113-22.195-22.113zm-48.129 349.22c0 0.79687-0.71484 1.5117-1.5117 1.5117h-564.64c-0.79688 0-1.5117-0.71484-1.5117-1.5117v-277.39c0-0.79688 0.71484-1.5898 1.5117-1.5898h564.64c0.79688 0 1.5117 0.71484 1.5117 1.5898zm49.719-49.719c0 0.79687-0.71484 1.5898-1.5117 1.5898h-27.602v-229.26c0-12.172-9.9453-22.113-22.113-22.113l-516.51-0.003907v-27.602c0-0.79688 0.71484-1.5117 1.5117-1.5117h564.64c0.79688 0 1.5117 0.71484 1.5117 1.5117v277.39zm-67.535-144.78v111.53c0 5.6484-4.6133 10.262-10.262 10.262-21.477 0-38.98 17.5-38.98 38.98 0 5.6484-4.6133 10.262-10.262 10.262l-111.69-0.003906c-5.6484 0-10.262-4.6133-10.262-10.262 0-5.6484 4.6133-10.262 10.262-10.262h102.14c4.2969-24.582 23.785-44.07 48.367-48.367v-92.672c-24.582-4.2969-44.07-23.785-48.367-48.367h-102.14c-5.6484 0-10.262-4.6133-10.262-10.262 0-5.6484 4.6133-10.262 10.262-10.262h111.61c5.6484 0 10.262 4.6133 10.262 10.262 0 21.477 17.5 38.98 38.98 38.98 5.7266-0.078125 10.344 4.5352 10.344 10.184zm-350.65 160.85c0 5.6484-4.6133 10.262-10.262 10.262h-111.61c-5.6484 0-10.262-4.6133-10.262-10.262 0-21.477-17.5-38.98-38.98-38.98-5.6484 0-10.262-4.6133-10.262-10.262l0.003906-111.61c0-5.6484 4.6133-10.262 10.262-10.262 21.477 0 38.98-17.5 38.98-38.98 0-5.6484 4.6133-10.262 10.262-10.262h111.61c5.6484 0 10.262 4.6133 10.262 10.262 0 5.6484-4.6133 10.262-10.262 10.262h-102.22c-4.2969 24.582-23.785 44.07-48.367 48.367v92.754c24.582 4.2969 44.07 23.785 48.367 48.367h102.14c5.7305-0.003906 10.344 4.6094 10.344 10.34zm84.641-224.49c-65.867 0-119.48 53.617-119.48 119.48 0 65.867 53.617 119.48 119.48 119.48 65.867 0 119.48-53.617 119.48-119.48 0-65.863-53.695-119.48-119.48-119.48zm0 218.28c-54.492 0-98.879-44.387-98.879-98.879 0-54.492 44.387-98.879 98.879-98.879 54.492 0 98.879 44.387 98.879 98.879-0.082031 54.57-44.391 98.879-98.879 98.879zm16.785-125.93h20.602c0-17.023-11.535-31.262-27.125-35.797v-13.207h-20.602v13.207c-15.59 4.5352-27.125 18.773-27.125 35.797 0 17.023 11.535 31.262 27.125 35.797v31.582c-3.8984-3.1016-6.5234-7.7969-6.5234-13.207h-20.602c0 17.023 11.535 31.262 27.125 35.797v13.207h20.602v-13.207c15.59-4.5352 27.125-18.773 27.125-35.797 0-17.023-11.535-31.262-27.125-35.797v-31.66c3.8984 3.1836 6.5234 7.875 6.5234 13.285zm-33.652 0c0-5.4102 2.5469-10.102 6.5234-13.207v26.41c-3.8984-3.0977-6.5234-7.8711-6.5234-13.203zm33.652 54.172c0 5.4102-2.5469 10.102-6.5234 13.207v-26.41c3.8984 3.1016 6.5234 7.875 6.5234 13.203z"/>
 </g>
</svg>
