<?xml version="1.0" encoding="UTF-8"?>
<svg width="1200pt" height="1200pt" version="1.1" viewBox="0 0 1200 1200" xmlns="http://www.w3.org/2000/svg">
 <g >
  <path d="m1050 1125.6-74.398-322.8c-21.602-92.398-91.199-163.2-178.8-186-12-3.6016-25.199-2.3984-37.199 3.6016-48 24-103.2 37.199-159.6 37.199-57.602 0-111.6-13.199-159.6-37.199-12-6-24-7.1992-37.199-3.6016-87.602 24-158.4 94.801-178.8 186l-74.398 322.8c-4.8008 22.801 12 44.398 34.801 44.398h829.2c24 0 40.801-21.602 36-44.398z"/>
  <path d="m860.4 290.4c0 143.82-116.58 260.4-260.4 260.4s-260.4-116.59-260.4-260.4c0-143.81 116.58-260.4 260.4-260.4s260.4 116.59 260.4 260.4"/>
 </g>
</svg>
